{"accessors" : [{"bufferView" : 0, "byteOffset" : 0, "componentType" : 5123, "count" : 6144, "type" : "SCALAR", "max" : [1088], "min" : [0]}, {"bufferView" : 1, "byteOffset" : 0, "componentType" : 5126, "count" : 1089, "type" : "VEC3", "max" : [232.1844940185547, 76.44609832763672, 242.6970977783203], "min" : [-247.8155975341797, -10.201399803161621, -237.3029022216797], "name" : "POSITION"}, {"bufferView" : 1, "byteOffset" : 12, "componentType" : 5126, "count" : 1089, "type" : "VEC2", "max" : [1, -0], "min" : [0, -1], "name" : "TEXCOORD_0"}, {"bufferView" : 1, "byteOffset" : 20, "componentType" : 5126, "count" : 1089, "type" : "VEC3", "max" : [0.7200825810432434, 1.0000044107437134, 0.7361449003219604], "min" : [-0.6494999527931213, 0.6766412854194641, -0.7093995809555054], "name" : "NORMAL"}], "asset" : {"generator" : "Aspose.3D 21.5.1", "version" : "2.0"}, "buffers" : [{"uri" : "data:application/octet-stream;base64,", "byteLength" : 208904}], "bufferViews" : [{"buffer" : 0, "byteOffset" : 0, "byteLength" : 12288, "target" : 34963}, {"buffer" : 0, "byteOffset" : 12292, "byteLength" : 196608, "byteStride" : 32, "target" : 34962}], "meshes" : [{"primitives" : [{"attributes" : {"POSITION" : 1, "TEXCOORD_0" : 2, "NORMAL" : 3}, "indices" : 0, "mode" : 4}]}], "nodes" : [{"mesh" : 0, "name" : "Plane001"}], "scene" : 0, "scenes" : [{"nodes" : [0]}]}